<mxfile host="app.diagrams.net" modified="2023-06-26T01:59:43.845Z" agent="Mozilla/5.0 (Macintosh; Intel Mac OS X 10_15_7) AppleWebKit/537.36 (KHTML, like Gecko) Chrome/114.0.0.0 Safari/537.36" etag="rTD04jhf6Y3RJ4w3tUVf" version="21.5.0" type="device">
  <diagram name="Page-1" id="J7yOkfqLwqkoHcWd9iKJ">
    <mxGraphModel dx="761" dy="1599" grid="1" gridSize="10" guides="1" tooltips="1" connect="1" arrows="1" fold="1" page="1" pageScale="1" pageWidth="827" pageHeight="1169" math="0" shadow="0">
      <root>
        <mxCell id="0" />
        <mxCell id="1" parent="0" />
        <mxCell id="fyXBZufNsQUEwjG_MLhX-1" value="&lt;font size=&quot;1&quot; face=&quot;Times New Roman&quot;&gt;&lt;b style=&quot;font-size: 15px;&quot;&gt;1.2&lt;/b&gt;&lt;/font&gt;" style="ellipse;whiteSpace=wrap;html=1;fillColor=#dae8fc;strokeColor=#6c8ebf;strokeWidth=2;align=center;verticalAlign=middle;spacing=0;spacingTop=-4;" vertex="1" parent="1">
          <mxGeometry x="250" y="-910" width="40" height="40" as="geometry" />
        </mxCell>
        <mxCell id="fyXBZufNsQUEwjG_MLhX-2" value="&lt;font size=&quot;1&quot; face=&quot;Times New Roman&quot;&gt;&lt;b style=&quot;font-size: 15px;&quot;&gt;1.0&lt;/b&gt;&lt;/font&gt;" style="ellipse;whiteSpace=wrap;html=1;fillColor=#ffe6cc;strokeColor=#d79b00;strokeWidth=2;align=center;verticalAlign=middle;spacing=0;spacingTop=-4;" vertex="1" parent="1">
          <mxGeometry x="414" y="-910" width="40" height="40" as="geometry" />
        </mxCell>
        <mxCell id="fyXBZufNsQUEwjG_MLhX-3" value="" style="group" vertex="1" connectable="0" parent="1">
          <mxGeometry x="330" y="-880" width="40" height="15" as="geometry" />
        </mxCell>
        <mxCell id="fyXBZufNsQUEwjG_MLhX-4" value="" style="group" vertex="1" connectable="0" parent="fyXBZufNsQUEwjG_MLhX-3">
          <mxGeometry width="40" height="15" as="geometry" />
        </mxCell>
        <mxCell id="fyXBZufNsQUEwjG_MLhX-5" value="" style="rounded=0;whiteSpace=wrap;html=1;" vertex="1" parent="fyXBZufNsQUEwjG_MLhX-4">
          <mxGeometry width="40" height="15" as="geometry" />
        </mxCell>
        <mxCell id="fyXBZufNsQUEwjG_MLhX-6" value="" style="endArrow=none;html=1;rounded=0;entryX=0.25;entryY=0;entryDx=0;entryDy=0;" edge="1" parent="fyXBZufNsQUEwjG_MLhX-4" target="fyXBZufNsQUEwjG_MLhX-5">
          <mxGeometry width="50" height="50" relative="1" as="geometry">
            <mxPoint x="10" y="15" as="sourcePoint" />
            <mxPoint x="60" y="30" as="targetPoint" />
          </mxGeometry>
        </mxCell>
        <mxCell id="fyXBZufNsQUEwjG_MLhX-7" value="" style="endArrow=none;html=1;rounded=0;entryX=0.5;entryY=0;entryDx=0;entryDy=0;" edge="1" parent="fyXBZufNsQUEwjG_MLhX-4" target="fyXBZufNsQUEwjG_MLhX-5">
          <mxGeometry width="50" height="50" relative="1" as="geometry">
            <mxPoint x="20" y="15" as="sourcePoint" />
            <mxPoint x="20" y="7.5" as="targetPoint" />
          </mxGeometry>
        </mxCell>
        <mxCell id="fyXBZufNsQUEwjG_MLhX-8" value="" style="endArrow=none;html=1;rounded=0;entryX=0.75;entryY=0;entryDx=0;entryDy=0;" edge="1" parent="fyXBZufNsQUEwjG_MLhX-4" target="fyXBZufNsQUEwjG_MLhX-5">
          <mxGeometry width="50" height="50" relative="1" as="geometry">
            <mxPoint x="30" y="15" as="sourcePoint" />
            <mxPoint x="30" y="15" as="targetPoint" />
          </mxGeometry>
        </mxCell>
        <mxCell id="fyXBZufNsQUEwjG_MLhX-9" value="" style="endArrow=classic;html=1;rounded=0;exitX=0;exitY=1;exitDx=0;exitDy=0;entryX=1;entryY=0.5;entryDx=0;entryDy=0;" edge="1" parent="1" source="fyXBZufNsQUEwjG_MLhX-2" target="fyXBZufNsQUEwjG_MLhX-5">
          <mxGeometry width="50" height="50" relative="1" as="geometry">
            <mxPoint x="380" y="-895" as="sourcePoint" />
            <mxPoint x="424" y="-880" as="targetPoint" />
          </mxGeometry>
        </mxCell>
        <mxCell id="fyXBZufNsQUEwjG_MLhX-10" value="" style="endArrow=classic;html=1;rounded=0;exitX=0;exitY=0.5;exitDx=0;exitDy=0;entryX=1;entryY=1;entryDx=0;entryDy=0;" edge="1" parent="1" source="fyXBZufNsQUEwjG_MLhX-5" target="fyXBZufNsQUEwjG_MLhX-1">
          <mxGeometry width="50" height="50" relative="1" as="geometry">
            <mxPoint x="424" y="-880" as="sourcePoint" />
            <mxPoint x="380" y="-865" as="targetPoint" />
          </mxGeometry>
        </mxCell>
        <mxCell id="fyXBZufNsQUEwjG_MLhX-11" value="" style="group" vertex="1" connectable="0" parent="1">
          <mxGeometry x="330" y="-920" width="40" height="15" as="geometry" />
        </mxCell>
        <mxCell id="fyXBZufNsQUEwjG_MLhX-12" value="" style="group" vertex="1" connectable="0" parent="fyXBZufNsQUEwjG_MLhX-11">
          <mxGeometry width="40" height="15" as="geometry" />
        </mxCell>
        <mxCell id="fyXBZufNsQUEwjG_MLhX-13" value="" style="rounded=0;whiteSpace=wrap;html=1;" vertex="1" parent="fyXBZufNsQUEwjG_MLhX-12">
          <mxGeometry width="40" height="15" as="geometry" />
        </mxCell>
        <mxCell id="fyXBZufNsQUEwjG_MLhX-14" value="" style="endArrow=none;html=1;rounded=0;entryX=0.25;entryY=0;entryDx=0;entryDy=0;" edge="1" parent="fyXBZufNsQUEwjG_MLhX-12" target="fyXBZufNsQUEwjG_MLhX-13">
          <mxGeometry width="50" height="50" relative="1" as="geometry">
            <mxPoint x="10" y="15" as="sourcePoint" />
            <mxPoint x="60" y="30" as="targetPoint" />
          </mxGeometry>
        </mxCell>
        <mxCell id="fyXBZufNsQUEwjG_MLhX-15" value="" style="endArrow=none;html=1;rounded=0;entryX=0.5;entryY=0;entryDx=0;entryDy=0;" edge="1" parent="fyXBZufNsQUEwjG_MLhX-12" target="fyXBZufNsQUEwjG_MLhX-13">
          <mxGeometry width="50" height="50" relative="1" as="geometry">
            <mxPoint x="20" y="15" as="sourcePoint" />
            <mxPoint x="20" y="7.5" as="targetPoint" />
          </mxGeometry>
        </mxCell>
        <mxCell id="fyXBZufNsQUEwjG_MLhX-16" value="" style="endArrow=none;html=1;rounded=0;entryX=0.75;entryY=0;entryDx=0;entryDy=0;" edge="1" parent="fyXBZufNsQUEwjG_MLhX-12" target="fyXBZufNsQUEwjG_MLhX-13">
          <mxGeometry width="50" height="50" relative="1" as="geometry">
            <mxPoint x="30" y="15" as="sourcePoint" />
            <mxPoint x="30" y="15" as="targetPoint" />
          </mxGeometry>
        </mxCell>
        <mxCell id="fyXBZufNsQUEwjG_MLhX-17" value="" style="endArrow=classic;html=1;rounded=0;exitX=1;exitY=0.5;exitDx=0;exitDy=0;entryX=0;entryY=0;entryDx=0;entryDy=0;" edge="1" parent="1" source="fyXBZufNsQUEwjG_MLhX-13" target="fyXBZufNsQUEwjG_MLhX-2">
          <mxGeometry width="50" height="50" relative="1" as="geometry">
            <mxPoint x="300" y="-890" as="sourcePoint" />
            <mxPoint x="340" y="-905" as="targetPoint" />
          </mxGeometry>
        </mxCell>
        <mxCell id="fyXBZufNsQUEwjG_MLhX-18" value="" style="endArrow=classic;html=1;rounded=0;exitX=1;exitY=0;exitDx=0;exitDy=0;entryX=0;entryY=0.5;entryDx=0;entryDy=0;" edge="1" parent="1" source="fyXBZufNsQUEwjG_MLhX-1" target="fyXBZufNsQUEwjG_MLhX-13">
          <mxGeometry width="50" height="50" relative="1" as="geometry">
            <mxPoint x="-270" y="1120" as="sourcePoint" />
            <mxPoint x="-320" y="936" as="targetPoint" />
          </mxGeometry>
        </mxCell>
        <mxCell id="fyXBZufNsQUEwjG_MLhX-19" value="&lt;font size=&quot;1&quot; face=&quot;Times New Roman&quot;&gt;&lt;b style=&quot;font-size: 15px;&quot;&gt;&lt;u&gt;A&lt;/u&gt;&lt;br&gt;1.3&lt;/b&gt;&lt;/font&gt;" style="ellipse;whiteSpace=wrap;html=1;fillColor=#ffe6cc;strokeColor=#d79b00;strokeWidth=2;align=center;verticalAlign=middle;spacing=0;spacingTop=-4;" vertex="1" parent="1">
          <mxGeometry x="240" y="-720" width="40" height="40" as="geometry" />
        </mxCell>
        <mxCell id="fyXBZufNsQUEwjG_MLhX-20" value="&lt;font size=&quot;1&quot; face=&quot;Times New Roman&quot;&gt;&lt;b style=&quot;font-size: 15px;&quot;&gt;&lt;u&gt;B&lt;/u&gt;&lt;br&gt;1.2&lt;/b&gt;&lt;/font&gt;" style="ellipse;whiteSpace=wrap;html=1;fillColor=#dae8fc;strokeColor=#6c8ebf;strokeWidth=2;align=center;verticalAlign=middle;spacing=0;spacingTop=-4;" vertex="1" parent="1">
          <mxGeometry x="360" y="-760" width="40" height="40" as="geometry" />
        </mxCell>
        <mxCell id="fyXBZufNsQUEwjG_MLhX-21" value="&lt;font size=&quot;1&quot; face=&quot;Times New Roman&quot;&gt;&lt;b style=&quot;font-size: 15px;&quot;&gt;&lt;u&gt;C&lt;/u&gt;&lt;br&gt;1.1&lt;/b&gt;&lt;/font&gt;" style="ellipse;whiteSpace=wrap;html=1;fillColor=#f8cecc;strokeColor=#b85450;strokeWidth=2;align=center;verticalAlign=middle;spacing=0;spacingTop=-4;" vertex="1" parent="1">
          <mxGeometry x="360" y="-680" width="40" height="40" as="geometry" />
        </mxCell>
        <mxCell id="fyXBZufNsQUEwjG_MLhX-22" value="&lt;font size=&quot;1&quot; face=&quot;Times New Roman&quot;&gt;&lt;b style=&quot;font-size: 15px;&quot;&gt;&lt;u&gt;D&lt;/u&gt;&lt;br&gt;1.4&lt;/b&gt;&lt;/font&gt;" style="ellipse;whiteSpace=wrap;html=1;fillColor=#d5e8d4;strokeColor=#82b366;strokeWidth=2;align=center;verticalAlign=middle;spacing=0;spacingTop=-4;" vertex="1" parent="1">
          <mxGeometry x="480" y="-720" width="40" height="40" as="geometry" />
        </mxCell>
        <mxCell id="fyXBZufNsQUEwjG_MLhX-24" value="" style="group" vertex="1" connectable="0" parent="1">
          <mxGeometry x="300" y="-747.5" width="40" height="15" as="geometry" />
        </mxCell>
        <mxCell id="fyXBZufNsQUEwjG_MLhX-25" value="" style="group" vertex="1" connectable="0" parent="fyXBZufNsQUEwjG_MLhX-24">
          <mxGeometry width="40" height="15" as="geometry" />
        </mxCell>
        <mxCell id="fyXBZufNsQUEwjG_MLhX-26" value="" style="rounded=0;whiteSpace=wrap;html=1;" vertex="1" parent="fyXBZufNsQUEwjG_MLhX-25">
          <mxGeometry width="40" height="15" as="geometry" />
        </mxCell>
        <mxCell id="fyXBZufNsQUEwjG_MLhX-27" value="" style="endArrow=none;html=1;rounded=0;entryX=0.25;entryY=0;entryDx=0;entryDy=0;" edge="1" parent="fyXBZufNsQUEwjG_MLhX-25" target="fyXBZufNsQUEwjG_MLhX-26">
          <mxGeometry width="50" height="50" relative="1" as="geometry">
            <mxPoint x="10" y="15" as="sourcePoint" />
            <mxPoint x="60" y="30" as="targetPoint" />
          </mxGeometry>
        </mxCell>
        <mxCell id="fyXBZufNsQUEwjG_MLhX-28" value="" style="endArrow=none;html=1;rounded=0;entryX=0.5;entryY=0;entryDx=0;entryDy=0;" edge="1" parent="fyXBZufNsQUEwjG_MLhX-25" target="fyXBZufNsQUEwjG_MLhX-26">
          <mxGeometry width="50" height="50" relative="1" as="geometry">
            <mxPoint x="20" y="15" as="sourcePoint" />
            <mxPoint x="20" y="7.5" as="targetPoint" />
          </mxGeometry>
        </mxCell>
        <mxCell id="fyXBZufNsQUEwjG_MLhX-29" value="" style="endArrow=none;html=1;rounded=0;entryX=0.75;entryY=0;entryDx=0;entryDy=0;" edge="1" parent="fyXBZufNsQUEwjG_MLhX-25" target="fyXBZufNsQUEwjG_MLhX-26">
          <mxGeometry width="50" height="50" relative="1" as="geometry">
            <mxPoint x="30" y="15" as="sourcePoint" />
            <mxPoint x="30" y="15" as="targetPoint" />
          </mxGeometry>
        </mxCell>
        <mxCell id="fyXBZufNsQUEwjG_MLhX-30" value="" style="group" vertex="1" connectable="0" parent="1">
          <mxGeometry x="300" y="-667.5" width="40" height="15" as="geometry" />
        </mxCell>
        <mxCell id="fyXBZufNsQUEwjG_MLhX-31" value="" style="group" vertex="1" connectable="0" parent="fyXBZufNsQUEwjG_MLhX-30">
          <mxGeometry width="40" height="15" as="geometry" />
        </mxCell>
        <mxCell id="fyXBZufNsQUEwjG_MLhX-32" value="" style="rounded=0;whiteSpace=wrap;html=1;" vertex="1" parent="fyXBZufNsQUEwjG_MLhX-31">
          <mxGeometry width="40" height="15" as="geometry" />
        </mxCell>
        <mxCell id="fyXBZufNsQUEwjG_MLhX-33" value="" style="endArrow=none;html=1;rounded=0;entryX=0.25;entryY=0;entryDx=0;entryDy=0;" edge="1" parent="fyXBZufNsQUEwjG_MLhX-31" target="fyXBZufNsQUEwjG_MLhX-32">
          <mxGeometry width="50" height="50" relative="1" as="geometry">
            <mxPoint x="10" y="15" as="sourcePoint" />
            <mxPoint x="60" y="30" as="targetPoint" />
          </mxGeometry>
        </mxCell>
        <mxCell id="fyXBZufNsQUEwjG_MLhX-34" value="" style="endArrow=none;html=1;rounded=0;entryX=0.5;entryY=0;entryDx=0;entryDy=0;" edge="1" parent="fyXBZufNsQUEwjG_MLhX-31" target="fyXBZufNsQUEwjG_MLhX-32">
          <mxGeometry width="50" height="50" relative="1" as="geometry">
            <mxPoint x="20" y="15" as="sourcePoint" />
            <mxPoint x="20" y="7.5" as="targetPoint" />
          </mxGeometry>
        </mxCell>
        <mxCell id="fyXBZufNsQUEwjG_MLhX-35" value="" style="endArrow=none;html=1;rounded=0;entryX=0.75;entryY=0;entryDx=0;entryDy=0;" edge="1" parent="fyXBZufNsQUEwjG_MLhX-31" target="fyXBZufNsQUEwjG_MLhX-32">
          <mxGeometry width="50" height="50" relative="1" as="geometry">
            <mxPoint x="30" y="15" as="sourcePoint" />
            <mxPoint x="30" y="15" as="targetPoint" />
          </mxGeometry>
        </mxCell>
        <mxCell id="fyXBZufNsQUEwjG_MLhX-36" value="" style="group" vertex="1" connectable="0" parent="1">
          <mxGeometry x="420" y="-747.5" width="40" height="15" as="geometry" />
        </mxCell>
        <mxCell id="fyXBZufNsQUEwjG_MLhX-37" value="" style="group" vertex="1" connectable="0" parent="fyXBZufNsQUEwjG_MLhX-36">
          <mxGeometry width="40" height="15" as="geometry" />
        </mxCell>
        <mxCell id="fyXBZufNsQUEwjG_MLhX-38" value="" style="rounded=0;whiteSpace=wrap;html=1;" vertex="1" parent="fyXBZufNsQUEwjG_MLhX-37">
          <mxGeometry width="40" height="15" as="geometry" />
        </mxCell>
        <mxCell id="fyXBZufNsQUEwjG_MLhX-39" value="" style="endArrow=none;html=1;rounded=0;entryX=0.25;entryY=0;entryDx=0;entryDy=0;" edge="1" parent="fyXBZufNsQUEwjG_MLhX-37" target="fyXBZufNsQUEwjG_MLhX-38">
          <mxGeometry width="50" height="50" relative="1" as="geometry">
            <mxPoint x="10" y="15" as="sourcePoint" />
            <mxPoint x="60" y="30" as="targetPoint" />
          </mxGeometry>
        </mxCell>
        <mxCell id="fyXBZufNsQUEwjG_MLhX-40" value="" style="endArrow=none;html=1;rounded=0;entryX=0.5;entryY=0;entryDx=0;entryDy=0;" edge="1" parent="fyXBZufNsQUEwjG_MLhX-37" target="fyXBZufNsQUEwjG_MLhX-38">
          <mxGeometry width="50" height="50" relative="1" as="geometry">
            <mxPoint x="20" y="15" as="sourcePoint" />
            <mxPoint x="20" y="7.5" as="targetPoint" />
          </mxGeometry>
        </mxCell>
        <mxCell id="fyXBZufNsQUEwjG_MLhX-41" value="" style="endArrow=none;html=1;rounded=0;entryX=0.75;entryY=0;entryDx=0;entryDy=0;" edge="1" parent="fyXBZufNsQUEwjG_MLhX-37" target="fyXBZufNsQUEwjG_MLhX-38">
          <mxGeometry width="50" height="50" relative="1" as="geometry">
            <mxPoint x="30" y="15" as="sourcePoint" />
            <mxPoint x="30" y="15" as="targetPoint" />
          </mxGeometry>
        </mxCell>
        <mxCell id="fyXBZufNsQUEwjG_MLhX-42" value="" style="group" vertex="1" connectable="0" parent="1">
          <mxGeometry x="420" y="-667.5" width="40" height="15" as="geometry" />
        </mxCell>
        <mxCell id="fyXBZufNsQUEwjG_MLhX-43" value="" style="group" vertex="1" connectable="0" parent="fyXBZufNsQUEwjG_MLhX-42">
          <mxGeometry width="40" height="15" as="geometry" />
        </mxCell>
        <mxCell id="fyXBZufNsQUEwjG_MLhX-44" value="" style="rounded=0;whiteSpace=wrap;html=1;" vertex="1" parent="fyXBZufNsQUEwjG_MLhX-43">
          <mxGeometry width="40" height="15" as="geometry" />
        </mxCell>
        <mxCell id="fyXBZufNsQUEwjG_MLhX-45" value="" style="endArrow=none;html=1;rounded=0;entryX=0.25;entryY=0;entryDx=0;entryDy=0;" edge="1" parent="fyXBZufNsQUEwjG_MLhX-43" target="fyXBZufNsQUEwjG_MLhX-44">
          <mxGeometry width="50" height="50" relative="1" as="geometry">
            <mxPoint x="10" y="15" as="sourcePoint" />
            <mxPoint x="60" y="30" as="targetPoint" />
          </mxGeometry>
        </mxCell>
        <mxCell id="fyXBZufNsQUEwjG_MLhX-46" value="" style="endArrow=none;html=1;rounded=0;entryX=0.5;entryY=0;entryDx=0;entryDy=0;" edge="1" parent="fyXBZufNsQUEwjG_MLhX-43" target="fyXBZufNsQUEwjG_MLhX-44">
          <mxGeometry width="50" height="50" relative="1" as="geometry">
            <mxPoint x="20" y="15" as="sourcePoint" />
            <mxPoint x="20" y="7.5" as="targetPoint" />
          </mxGeometry>
        </mxCell>
        <mxCell id="fyXBZufNsQUEwjG_MLhX-47" value="" style="endArrow=none;html=1;rounded=0;entryX=0.75;entryY=0;entryDx=0;entryDy=0;" edge="1" parent="fyXBZufNsQUEwjG_MLhX-43" target="fyXBZufNsQUEwjG_MLhX-44">
          <mxGeometry width="50" height="50" relative="1" as="geometry">
            <mxPoint x="30" y="15" as="sourcePoint" />
            <mxPoint x="30" y="15" as="targetPoint" />
          </mxGeometry>
        </mxCell>
        <mxCell id="fyXBZufNsQUEwjG_MLhX-48" value="" style="endArrow=classic;html=1;rounded=0;exitX=1;exitY=0;exitDx=0;exitDy=0;entryX=0;entryY=0.5;entryDx=0;entryDy=0;" edge="1" parent="1" source="fyXBZufNsQUEwjG_MLhX-19" target="fyXBZufNsQUEwjG_MLhX-26">
          <mxGeometry width="50" height="50" relative="1" as="geometry">
            <mxPoint x="294" y="-894" as="sourcePoint" />
            <mxPoint x="340" y="-902" as="targetPoint" />
          </mxGeometry>
        </mxCell>
        <mxCell id="fyXBZufNsQUEwjG_MLhX-49" value="" style="endArrow=classic;html=1;rounded=0;exitX=1;exitY=1;exitDx=0;exitDy=0;entryX=0;entryY=0.5;entryDx=0;entryDy=0;" edge="1" parent="1" source="fyXBZufNsQUEwjG_MLhX-19" target="fyXBZufNsQUEwjG_MLhX-32">
          <mxGeometry width="50" height="50" relative="1" as="geometry">
            <mxPoint x="284" y="-704" as="sourcePoint" />
            <mxPoint x="310" y="-730" as="targetPoint" />
          </mxGeometry>
        </mxCell>
        <mxCell id="fyXBZufNsQUEwjG_MLhX-50" value="" style="endArrow=classic;html=1;rounded=0;exitX=1;exitY=0.5;exitDx=0;exitDy=0;entryX=0;entryY=0;entryDx=0;entryDy=0;" edge="1" parent="1" source="fyXBZufNsQUEwjG_MLhX-38" target="fyXBZufNsQUEwjG_MLhX-22">
          <mxGeometry width="50" height="50" relative="1" as="geometry">
            <mxPoint x="294" y="-694" as="sourcePoint" />
            <mxPoint x="320" y="-720" as="targetPoint" />
          </mxGeometry>
        </mxCell>
        <mxCell id="fyXBZufNsQUEwjG_MLhX-51" value="" style="endArrow=classic;html=1;rounded=0;exitX=1;exitY=0.5;exitDx=0;exitDy=0;entryX=0;entryY=1;entryDx=0;entryDy=0;" edge="1" parent="1" source="fyXBZufNsQUEwjG_MLhX-44" target="fyXBZufNsQUEwjG_MLhX-22">
          <mxGeometry width="50" height="50" relative="1" as="geometry">
            <mxPoint x="470" y="-730" as="sourcePoint" />
            <mxPoint x="496" y="-704" as="targetPoint" />
          </mxGeometry>
        </mxCell>
        <mxCell id="fyXBZufNsQUEwjG_MLhX-52" value="" style="endArrow=classic;html=1;rounded=0;exitX=1;exitY=0.5;exitDx=0;exitDy=0;entryX=0;entryY=0.5;entryDx=0;entryDy=0;" edge="1" parent="1" source="fyXBZufNsQUEwjG_MLhX-26" target="fyXBZufNsQUEwjG_MLhX-20">
          <mxGeometry width="50" height="50" relative="1" as="geometry">
            <mxPoint x="284" y="-704" as="sourcePoint" />
            <mxPoint x="310" y="-730" as="targetPoint" />
          </mxGeometry>
        </mxCell>
        <mxCell id="fyXBZufNsQUEwjG_MLhX-53" value="" style="endArrow=classic;html=1;rounded=0;exitX=1;exitY=0.5;exitDx=0;exitDy=0;entryX=0;entryY=0.5;entryDx=0;entryDy=0;" edge="1" parent="1" source="fyXBZufNsQUEwjG_MLhX-20" target="fyXBZufNsQUEwjG_MLhX-38">
          <mxGeometry width="50" height="50" relative="1" as="geometry">
            <mxPoint x="294" y="-694" as="sourcePoint" />
            <mxPoint x="320" y="-720" as="targetPoint" />
          </mxGeometry>
        </mxCell>
        <mxCell id="fyXBZufNsQUEwjG_MLhX-54" value="" style="endArrow=classic;html=1;rounded=0;exitX=1;exitY=0.5;exitDx=0;exitDy=0;entryX=0;entryY=0.5;entryDx=0;entryDy=0;" edge="1" parent="1" source="fyXBZufNsQUEwjG_MLhX-32" target="fyXBZufNsQUEwjG_MLhX-21">
          <mxGeometry width="50" height="50" relative="1" as="geometry">
            <mxPoint x="304" y="-684" as="sourcePoint" />
            <mxPoint x="330" y="-710" as="targetPoint" />
          </mxGeometry>
        </mxCell>
        <mxCell id="fyXBZufNsQUEwjG_MLhX-55" value="" style="endArrow=classic;html=1;rounded=0;exitX=1;exitY=0.5;exitDx=0;exitDy=0;entryX=0;entryY=0.5;entryDx=0;entryDy=0;" edge="1" parent="1" source="fyXBZufNsQUEwjG_MLhX-21" target="fyXBZufNsQUEwjG_MLhX-44">
          <mxGeometry width="50" height="50" relative="1" as="geometry">
            <mxPoint x="314" y="-674" as="sourcePoint" />
            <mxPoint x="340" y="-700" as="targetPoint" />
          </mxGeometry>
        </mxCell>
        <mxCell id="fyXBZufNsQUEwjG_MLhX-56" value="" style="endArrow=classic;html=1;rounded=0;entryX=0;entryY=0.5;entryDx=0;entryDy=0;" edge="1" parent="1" target="fyXBZufNsQUEwjG_MLhX-19">
          <mxGeometry width="50" height="50" relative="1" as="geometry">
            <mxPoint x="210" y="-700" as="sourcePoint" />
            <mxPoint x="370" y="-730" as="targetPoint" />
          </mxGeometry>
        </mxCell>
        <mxCell id="fyXBZufNsQUEwjG_MLhX-57" value="" style="endArrow=classic;html=1;rounded=0;exitX=1;exitY=0.5;exitDx=0;exitDy=0;" edge="1" parent="1" source="fyXBZufNsQUEwjG_MLhX-22">
          <mxGeometry width="50" height="50" relative="1" as="geometry">
            <mxPoint x="520" y="-700.43" as="sourcePoint" />
            <mxPoint x="550" y="-700" as="targetPoint" />
          </mxGeometry>
        </mxCell>
      </root>
    </mxGraphModel>
  </diagram>
</mxfile>
